<?xml version="1.0" standalone="no"?>
<!DOCTYPE svg PUBLIC "-//W3C//DTD SVG 20010904//EN"
 "http://www.w3.org/TR/2001/REC-SVG-20010904/DTD/svg10.dtd">
<svg version="1.0" xmlns="http://www.w3.org/2000/svg"
 width="111.000000pt" height="44.000000pt" viewBox="0 0 111.000000 44.000000"
 preserveAspectRatio="xMidYMid meet">

<g transform="translate(0.000000,44.000000) scale(0.100000,-0.100000)"
fill="#000000" stroke="none">
<path d="M51 344 c-90 -75 -38 -224 78 -224 85 0 131 46 131 131 0 45 -4 55
-34 85 -30 30 -40 34 -89 34 -45 0 -61 -5 -86 -26z m129 -29 c64 -33 46 -133
-26 -151 -79 -20 -138 83 -79 141 28 29 63 32 105 10z"/>
<path d="M290 246 c0 -119 1 -126 20 -126 18 0 20 7 20 74 0 41 5 78 10 81 6
4 29 -8 53 -25 27 -20 43 -26 46 -18 4 11 -23 38 -111 109 l-38 31 0 -126z"/>
<path d="M490 267 c0 -97 8 -127 32 -127 4 0 8 43 8 95 l0 95 50 0 c36 0 50 4
50 14 0 19 -22 26 -86 26 l-54 0 0 -103z"/>
<path d="M757 341 c3 -11 13 -27 22 -36 17 -14 18 -13 17 10 -1 15 -8 30 -16
35 -23 15 -29 12 -23 -9z"/>
<path d="M602 201 c-8 -5 -12 -21 -10 -41 l3 -33 75 2 c79 3 90 5 90 24 0 8
-19 11 -65 9 -64 -4 -65 -3 -65 22 0 27 -6 31 -28 17z"/>
</g>
</svg>
